PathFileType  4	(X/Y/Z) C:\Users\MoBL3\Box\OA_GRF_OpenCap\GRF_Tracking_12_18_24\Subject3_walking1
DataRate	CameraRate	NumFrames	NumMarkers	Units	OrigDataRate	OrigDataStartFrame	OrigNumFrames
100.0		100.0		4		177		 mm	100.0	34	132
Frame#	Time	r_knee			r_shank_antsup			r_ankle			r_calc			r_5meta			r_toe			L_knee			L_shank_antsup			L_ankle			L_calc			L_5meta			L_toe			r_sh2			r_sh3			r_sh4			L_sh2			L_sh3			r_thigh1			r_thigh2			r_thigh3			r_thigh4			r_thigh5			L_thigh1			L_thigh2			L_thigh3			L_thigh4			r.ASIS			r.PSIS			L.ASIS			L.PSIS			C7			R_Shoulder			L_Shoulder			R_Sternum			L_Sternum			R_humerus			R_elbow_med			R_elbow_lat			R_forearm			R_wrist_radius			R_wrist_ulna			L_humerus			L_elbow_med			L_elbow_lat			L_forearm			L_wrist_radius			L_wrist_ulna			R_HJC			L_HJC			R_HJC_reg			L_HJC_reg			Neck			RShoulder			RElbow			RWrist			LShoulder			LElbow			LWrist			midHip			RHip			RKnee			RAnkle			LHip			LKnee			LAnkle			LBigToe			LSmallToe			LHeel			RBigToe			RSmallToe			RHeel			C7_study			r_shoulder_study			L_shoulder_study			r.ASIS_study			L.ASIS_study			r.PSIS_study			L.PSIS_study			r_knee_study			L_knee_study			r_mknee_study			L_mknee_study			r_ankle_study			L_ankle_study			r_mankle_study			L_mankle_study			r_calc_study			L_calc_study			r_toe_study			L_toe_study			r_5meta_study			L_5meta_study			r_thigh1_study			r_thigh2_study			r_thigh3_study			L_thigh1_study			L_thigh2_study			L_thigh3_study			r_sh1_study			r_sh2_study			r_sh3_study			L_sh1_study			L_sh2_study			L_sh3_study			RHJC_study			LHJC_study			r_lelbow_study			L_lelbow_study			r_melbow_study			L_melbow_study			r_lwrist_study			L_lwrist_study			r_mwrist_study			L_mwrist_study			Neck_offsetRemoved			RShoulder_offsetRemoved			RElbow_offsetRemoved			RWrist_offsetRemoved			LShoulder_offsetRemoved			LElbow_offsetRemoved			LWrist_offsetRemoved			midHip_offsetRemoved			RHip_offsetRemoved			RKnee_offsetRemoved			RAnkle_offsetRemoved			LHip_offsetRemoved			LKnee_offsetRemoved			LAnkle_offsetRemoved			LBigToe_offsetRemoved			LSmallToe_offsetRemoved			LHeel_offsetRemoved			RBigToe_offsetRemoved			RSmallToe_offsetRemoved			RHeel_offsetRemoved			C7_study_offsetRemoved			r_shoulder_study_offsetRemoved			L_shoulder_study_offsetRemoved			r.ASIS_study_offsetRemoved			L.ASIS_study_offsetRemoved			r.PSIS_study_offsetRemoved			L.PSIS_study_offsetRemoved			r_knee_study_offsetRemoved			L_knee_study_offsetRemoved			r_mknee_study_offsetRemoved			L_mknee_study_offsetRemoved			r_ankle_study_offsetRemoved			L_ankle_study_offsetRemoved			r_mankle_study_offsetRemoved			L_mankle_study_offsetRemoved			r_calc_study_offsetRemoved			L_calc_study_offsetRemoved			r_toe_study_offsetRemoved			L_toe_study_offsetRemoved			r_5meta_study_offsetRemoved			L_5meta_study_offsetRemoved			r_thigh1_study_offsetRemoved			r_thigh2_study_offsetRemoved			r_thigh3_study_offsetRemoved			L_thigh1_study_offsetRemoved			L_thigh2_study_offsetRemoved			L_thigh3_study_offsetRemoved			r_sh1_study_offsetRemoved			r_sh2_study_offsetRemoved			r_sh3_study_offsetRemoved			L_sh1_study_offsetRemoved			L_sh2_study_offsetRemoved			L_sh3_study_offsetRemoved			RHJC_study_offsetRemoved			LHJC_study_offsetRemoved			r_lelbow_study_offsetRemoved			L_lelbow_study_offsetRemoved			r_melbow_study_offsetRemoved			L_melbow_study_offsetRemoved			r_lwrist_study_offsetRemoved			L_lwrist_study_offsetRemoved			r_mwrist_study_offsetRemoved			L_mwrist_study_offsetRemoved			
		X1	Y1	Z1	X2	Y2	Z2	X3	Y3	Z3	X4	Y4	Z4	X5	Y5	Z5	X6	Y6	Z6	X7	Y7	Z7	X8	Y8	Z8	X9	Y9	Z9	X10	Y10	Z10	X11	Y11	Z11	X12	Y12	Z12	X13	Y13	Z13	X14	Y14	Z14	X15	Y15	Z15	X16	Y16	Z16	X17	Y17	Z17	X18	Y18	Z18	X19	Y19	Z19	X20	Y20	Z20	X21	Y21	Z21	X22	Y22	Z22	X23	Y23	Z23	X24	Y24	Z24	X25	Y25	Z25	X26	Y26	Z26	X27	Y27	Z27	X28	Y28	Z28	X29	Y29	Z29	X30	Y30	Z30	X31	Y31	Z31	X32	Y32	Z32	X33	Y33	Z33	X34	Y34	Z34	X35	Y35	Z35	X36	Y36	Z36	X37	Y37	Z37	X38	Y38	Z38	X39	Y39	Z39	X40	Y40	Z40	X41	Y41	Z41	X42	Y42	Z42	X43	Y43	Z43	X44	Y44	Z44	X45	Y45	Z45	X46	Y46	Z46	X47	Y47	Z47	X48	Y48	Z48	X49	Y49	Z49	X50	Y50	Z50	X51	Y51	Z51	X52	Y52	Z52	X53	Y53	Z53	X54	Y54	Z54	X55	Y55	Z55	X56	Y56	Z56	X57	Y57	Z57	X58	Y58	Z58	X59	Y59	Z59	X60	Y60	Z60	X61	Y61	Z61	X62	Y62	Z62	X63	Y63	Z63	X64	Y64	Z64	X65	Y65	Z65	X66	Y66	Z66	X67	Y67	Z67	X68	Y68	Z68	X69	Y69	Z69	X70	Y70	Z70	X71	Y71	Z71	X72	Y72	Z72	X73	Y73	Z73	X74	Y74	Z74	X75	Y75	Z75	X76	Y76	Z76	X77	Y77	Z77	X78	Y78	Z78	X79	Y79	Z79	X80	Y80	Z80	X81	Y81	Z81	X82	Y82	Z82	X83	Y83	Z83	X84	Y84	Z84	X85	Y85	Z85	X86	Y86	Z86	X87	Y87	Z87	X88	Y88	Z88	X89	Y89	Z89	X90	Y90	Z90	X91	Y91	Z91	X92	Y92	Z92	X93	Y93	Z93	X94	Y94	Z94	X95	Y95	Z95	X96	Y96	Z96	X97	Y97	Z97	X98	Y98	Z98	X99	Y99	Z99	X100	Y100	Z100	X101	Y101	Z101	X102	Y102	Z102	X103	Y103	Z103	X104	Y104	Z104	X105	Y105	Z105	X106	Y106	Z106	X107	Y107	Z107	X108	Y108	Z108	X109	Y109	Z109	X110	Y110	Z110	X111	Y111	Z111	X112	Y112	Z112	X113	Y113	Z113	X114	Y114	Z114	X115	Y115	Z115	X116	Y116	Z116	X117	Y117	Z117	X118	Y118	Z118	X119	Y119	Z119	X120	Y120	Z120	X121	Y121	Z121	X122	Y122	Z122	X123	Y123	Z123	X124	Y124	Z124	X125	Y125	Z125	X126	Y126	Z126	X127	Y127	Z127	X128	Y128	Z128	X129	Y129	Z129	X130	Y130	Z130	X131	Y131	Z131	X132	Y132	Z132	X133	Y133	Z133	X134	Y134	Z134	X135	Y135	Z135	X136	Y136	Z136	X137	Y137	Z137	X138	Y138	Z138	X139	Y139	Z139	X140	Y140	Z140	X141	Y141	Z141	X142	Y142	Z142	X143	Y143	Z143	X144	Y144	Z144	X145	Y145	Z145	X146	Y146	Z146	X147	Y147	Z147	X148	Y148	Z148	X149	Y149	Z149	X150	Y150	Z150	X151	Y151	Z151	X152	Y152	Z152	X153	Y153	Z153	X154	Y154	Z154	X155	Y155	Z155	X156	Y156	Z156	X157	Y157	Z157	X158	Y158	Z158	X159	Y159	Z159	X160	Y160	Z160	X161	Y161	Z161	X162	Y162	Z162	X163	Y163	Z163	X164	Y164	Z164	X165	Y165	Z165	X166	Y166	Z166	X167	Y167	Z167	X168	Y168	Z168	X169	Y169	Z169	X170	Y170	Z170	X171	Y171	Z171	X172	Y172	Z172	X173	Y173	Z173	X174	Y174	Z174	X175	Y175	Z175	X176	Y176	Z176	X177	Y177	Z177	

34	0.33000	233.252	454.327	-124.147	260.631	336.760	-155.855	164.936	77.223	-204.633	115.992	44.932	-261.280	274.019	26.940	-174.107	313.677	44.772	-214.992	407.930	485.026	-409.087	402.507	369.460	-373.789	172.077	185.573	-399.553	116.580	175.716	-346.181	237.761	76.923	-432.890	285.920	68.146	-386.784	243.845	229.960	-183.005	207.513	331.292	-102.430	172.655	229.186	-136.947	368.139	421.030	-434.919	292.539	327.854	-451.132	323.587	759.952	-105.609	330.814	648.098	-116.040	286.022	618.817	-72.148	222.878	745.662	-52.907	231.299	632.893	-64.880	341.464	770.765	-416.348	418.588	657.943	-419.029	247.054	716.509	-442.247	325.544	599.320	-435.566	326.971	925.461	-129.196	141.160	968.953	-192.760	326.578	921.688	-368.906	137.422	962.914	-310.096	162.873	1417.951	-235.379	221.643	1384.693	-87.911	217.674	1396.606	-397.415	291.146	1370.430	-222.961	291.659	1369.281	-266.526	250.735	1259.450	-22.841	191.734	1055.525	-66.011	217.980	1065.957	3.829	298.303	967.587	21.487	359.004	881.768	21.943	327.076	864.991	35.402	231.950	1248.326	-466.010	170.409	1057.106	-408.137	174.814	1069.283	-480.396	220.569	984.136	-514.475	255.382	857.393	-516.948	227.596	851.638	-531.309	236.437	854.012	-149.956	239.839	846.295	-339.150	254.853	861.755	-157.008	249.821	853.628	-314.946	238.794	1317.993	-240.380	243.912	1313.934	-86.099	231.521	1066.938	-27.690	337.240	860.025	10.344	244.583	1322.183	-394.889	216.336	1072.580	-450.024	244.709	840.589	-501.261	262.946	896.652	-250.678	267.632	895.007	-142.257	253.195	447.243	-178.583	196.652	69.880	-241.195	264.088	898.894	-359.302	424.853	486.819	-336.419	191.960	119.212	-375.957	280.289	9.636	-382.959	277.310	12.935	-385.672	156.510	92.693	-373.177	316.708	8.042	-212.262	311.233	10.805	-210.873	173.900	43.768	-260.371	169.455	1383.942	-251.523	247.221	1364.862	-116.029	245.464	1370.688	-385.094	307.982	976.582	-101.745	306.929	959.273	-408.356	145.874	987.180	-196.015	148.405	979.354	-316.248	261.538	475.719	-142.441	405.413	507.000	-418.859	263.685	489.938	-254.644	419.990	509.743	-299.876	181.305	66.233	-186.670	167.944	147.486	-404.205	199.419	72.866	-268.308	195.626	138.975	-324.557	113.487	44.755	-241.611	104.130	149.659	-351.702	308.988	23.762	-215.103	262.149	43.227	-380.768	264.269	19.031	-171.522	222.419	64.754	-424.470	333.087	741.632	-99.936	301.873	637.485	-96.701	219.038	745.304	-67.213	374.095	785.605	-434.216	379.732	670.024	-447.120	259.604	745.829	-448.957	237.072	351.003	-150.168	242.645	227.819	-149.046	177.277	245.235	-148.114	345.092	385.962	-419.914	293.044	267.835	-426.253	241.727	314.502	-427.698	230.863	899.667	-155.994	229.754	890.083	-342.409	245.552	1080.693	1.493	215.994	1091.086	-495.415	228.544	1061.714	-74.875	203.047	1074.052	-416.267	350.403	862.667	-8.932	282.209	857.935	-494.823	287.319	848.189	18.414	215.566	848.155	-512.708	242.676	1331.074	-243.971	247.794	1327.015	-89.690	235.403	1080.019	-31.281	341.122	873.105	6.753	248.465	1335.264	-398.480	220.218	1085.661	-453.615	248.591	853.670	-504.852	266.828	909.733	-254.269	271.514	908.088	-145.848	257.077	460.324	-182.174	200.534	82.961	-244.786	267.970	911.975	-362.893	428.735	499.900	-340.010	195.842	132.293	-379.548	284.171	22.717	-386.550	281.192	26.016	-389.263	160.392	105.773	-376.768	320.590	21.123	-215.853	315.115	23.886	-214.464	177.782	56.848	-263.962	173.337	1397.023	-255.114	251.104	1377.943	-119.620	249.346	1383.769	-388.685	311.864	989.663	-105.336	310.811	972.354	-411.947	149.756	1000.260	-199.606	152.287	992.435	-319.839	265.420	488.799	-146.032	409.295	520.081	-422.450	267.567	503.019	-258.235	423.873	522.824	-303.467	185.187	79.313	-190.261	171.826	160.567	-407.796	203.302	85.946	-271.899	199.508	152.056	-328.148	117.369	57.836	-245.202	108.012	162.739	-355.293	312.870	36.842	-218.694	266.031	56.308	-384.359	268.151	32.112	-175.113	226.301	77.835	-428.061	336.969	754.712	-103.527	305.755	650.565	-100.292	222.921	758.385	-70.804	377.977	798.686	-437.807	383.614	683.105	-450.711	263.486	758.910	-452.548	240.954	364.084	-153.759	246.527	240.900	-152.637	181.159	258.315	-151.705	348.974	399.042	-423.505	296.926	280.915	-429.844	245.609	327.583	-431.289	234.745	912.747	-159.585	233.636	903.163	-346.000	249.434	1093.774	-2.098	219.876	1104.167	-499.006	232.426	1074.795	-78.466	206.929	1087.133	-419.858	354.285	875.748	-12.523	286.091	871.016	-498.414	291.201	861.269	14.823	219.448	861.236	-516.299
35	0.34000	236.702	457.155	-123.693	262.957	339.116	-155.492	165.077	80.628	-204.642	116.181	48.177	-261.305	274.060	29.867	-174.035	313.818	47.605	-214.927	426.456	492.016	-407.701	426.570	376.082	-373.372	207.331	178.615	-399.127	152.384	165.211	-345.595	279.620	74.851	-432.957	328.624	69.073	-386.885	245.356	232.495	-182.833	209.727	334.120	-102.105	174.105	232.367	-136.802	388.794	426.266	-433.590	318.488	329.002	-450.153	332.499	761.473	-104.842	337.722	649.477	-115.100	292.227	620.971	-71.471	230.919	748.830	-52.494	237.717	635.860	-64.495	355.055	776.570	-416.063	434.307	665.205	-417.755	261.568	720.263	-442.652	342.251	604.846	-435.089	337.420	927.779	-128.299	152.073	971.948	-192.757	338.184	925.183	-367.942	148.774	966.027	-310.121	174.537	1421.085	-234.618	233.374	1387.859	-87.388	229.082	1399.538	-396.859	302.804	1373.489	-222.384	303.338	1372.359	-265.970	263.873	1263.250	-22.126	207.552	1058.277	-64.084	234.202	1069.420	5.544	317.268	973.361	22.560	380.799	889.260	22.563	349.381	871.668	36.157	240.681	1251.008	-465.624	178.177	1060.816	-405.746	180.885	1072.760	-478.189	223.805	986.756	-513.401	255.638	859.324	-516.783	227.475	853.972	-530.280	246.917	856.588	-149.846	251.312	849.628	-339.048	265.321	864.848	-156.445	260.884	856.884	-314.355	250.286	1320.493	-239.628	255.960	1316.423	-85.159	246.592	1069.695	-26.567	359.715	866.365	10.530	255.512	1324.699	-394.359	224.289	1075.852	-448.758	244.344	843.732	-500.019	272.245	896.118	-250.001	276.893	894.404	-141.946	257.323	450.802	-177.326	196.277	72.586	-240.567	273.281	898.360	-358.252	443.336	493.375	-335.040	226.016	113.404	-373.026	324.443	12.301	-379.679	321.262	15.094	-382.220	188.440	84.871	-369.617	317.263	10.316	-212.369	311.728	13.379	-210.748	175.216	46.945	-259.777	179.845	1383.771	-250.574	258.294	1364.443	-115.138	255.641	1370.165	-384.667	317.029	976.057	-100.498	317.334	959.732	-407.371	154.298	987.169	-195.654	157.349	979.629	-316.122	264.272	474.049	-141.118	421.387	508.387	-418.297	266.649	488.829	-253.814	436.421	511.660	-298.687	180.032	65.621	-186.386	202.681	137.623	-404.133	199.253	72.293	-267.732	231.011	130.372	-324.410	112.459	44.344	-241.738	138.155	135.061	-350.725	308.451	22.875	-214.333	304.492	39.972	-381.732	263.219	18.061	-170.956	262.851	59.211	-425.185	339.629	739.251	-98.224	306.792	635.525	-95.085	225.244	744.662	-66.087	385.619	787.154	-434.390	392.771	671.375	-446.916	271.105	745.407	-448.825	238.242	349.888	-149.468	242.511	226.604	-148.374	177.720	244.718	-147.800	366.641	384.901	-419.276	321.363	264.287	-426.038	267.399	308.139	-426.831	239.590	898.943	-155.545	239.458	889.871	-342.139	259.628	1080.544	3.901	221.936	1090.732	-494.355	241.892	1060.777	-72.642	209.661	1073.759	-414.831	371.153	866.351	-7.689	283.143	856.362	-494.468	308.669	850.126	19.932	216.281	848.348	-511.688	254.168	1333.574	-243.219	259.842	1329.504	-88.750	250.475	1082.776	-30.158	363.597	879.446	6.939	259.394	1337.780	-397.951	228.171	1088.933	-452.349	248.226	856.813	-503.610	276.127	909.199	-253.592	280.776	907.485	-145.537	261.205	463.883	-180.917	200.159	85.667	-244.158	277.163	911.440	-361.843	447.218	506.456	-338.631	229.898	126.485	-376.618	328.325	25.381	-383.270	325.144	28.175	-385.811	192.322	97.952	-373.208	321.145	23.397	-215.960	315.610	26.460	-214.339	179.098	60.026	-263.368	183.727	1396.852	-254.165	262.176	1377.523	-118.729	259.523	1383.246	-388.258	320.911	989.138	-104.089	321.216	972.812	-410.962	158.180	1000.250	-199.245	161.231	992.710	-319.713	268.154	487.130	-144.709	425.270	521.467	-421.888	270.531	501.909	-257.405	440.304	524.741	-302.278	183.914	78.701	-189.977	206.563	150.703	-407.724	203.135	85.373	-271.323	234.893	143.453	-328.001	116.341	57.424	-245.329	142.037	148.142	-354.316	312.334	35.956	-217.924	308.374	53.053	-385.323	267.101	31.142	-174.547	266.734	72.292	-428.776	343.511	752.332	-101.816	310.674	648.606	-98.676	229.126	757.743	-69.678	389.501	800.235	-437.981	396.653	684.456	-450.507	274.987	758.487	-452.416	242.125	362.969	-153.059	246.393	239.685	-151.965	181.602	257.799	-151.391	370.523	397.982	-422.867	325.245	277.367	-429.629	271.281	321.220	-430.422	243.472	912.024	-159.136	243.340	902.952	-345.730	263.511	1093.625	0.309	225.818	1103.812	-497.946	245.774	1073.858	-76.233	213.543	1086.840	-418.422	375.035	879.431	-11.280	287.025	869.443	-498.059	312.551	863.207	16.341	220.163	861.429	-515.279
36	0.35000	240.111	459.786	-123.251	265.294	341.306	-155.140	165.108	83.975	-204.634	116.358	51.276	-261.365	274.099	32.625	-173.965	313.941	50.257	-214.885	444.127	498.259	-406.337	449.945	382.319	-372.786	243.364	171.269	-398.615	189.153	154.462	-345.023	322.144	72.708	-432.333	371.828	70.326	-386.144	246.839	234.848	-182.666	211.908	336.757	-101.819	175.511	235.365	-136.700	408.925	430.599	-432.371	344.521	329.332	-449.172	341.295	762.683	-104.003	344.604	650.616	-114.101	298.393	622.855	-70.800	238.924	751.671	-52.164	244.039	638.563	-64.154	368.534	781.771	-415.810	449.431	671.580	-416.469	275.766	723.658	-443.012	358.270	609.840	-434.479	347.824	929.745	-127.350	162.978	974.502	-192.798	349.796	928.232	-367.038	160.154	968.681	-310.168	186.209	1423.861	-233.856	245.069	1390.606	-86.861	240.626	1402.101	-396.303	314.508	1376.143	-221.784	315.078	1375.045	-265.388	276.920	1266.632	-21.418	223.392	1060.637	-62.286	250.330	1072.518	7.161	336.042	978.762	23.550	402.224	896.436	23.077	371.313	878.053	36.797	249.609	1253.381	-465.210	186.009	1064.229	-403.475	187.054	1076.023	-476.111	227.185	989.207	-512.314	256.127	861.194	-516.569	227.590	856.236	-529.188	257.403	858.773	-149.730	262.821	852.511	-338.928	275.772	867.494	-155.856	271.973	859.661	-313.818	261.651	1322.511	-238.906	267.686	1318.348	-84.271	262.223	1071.737	-25.455	381.742	872.256	10.611	266.509	1326.817	-393.825	232.222	1078.621	-447.640	243.961	846.968	-498.805	281.340	894.880	-249.272	285.716	893.149	-141.689	260.963	454.147	-176.528	195.448	74.528	-240.108	282.532	897.079	-357.024	460.888	498.961	-333.829	260.587	108.894	-369.710	368.255	15.274	-376.308	364.772	17.670	-378.594	220.493	78.474	-365.801	318.108	12.295	-212.413	312.308	15.671	-210.695	175.516	49.101	-259.304	190.095	1383.004	-249.540	269.080	1363.402	-114.150	265.784	1369.072	-384.145	325.834	974.970	-99.368	327.598	959.352	-406.269	162.573	986.516	-195.411	166.163	979.175	-316.062	266.974	472.048	-139.790	436.672	508.970	-417.507	269.507	487.404	-252.942	452.095	512.793	-297.400	178.475	64.900	-186.131	237.856	127.946	-403.794	198.844	71.621	-267.174	266.718	122.062	-324.034	111.225	43.781	-241.864	172.937	120.708	-349.622	307.598	21.988	-213.661	346.836	37.263	-382.161	261.837	17.067	-170.500	303.471	54.077	-425.433	345.995	736.411	-96.530	311.576	633.129	-93.521	231.326	743.522	-65.007	396.746	787.795	-434.382	405.325	671.904	-446.568	282.299	744.244	-448.517	239.316	348.483	-148.770	242.245	225.150	-147.812	178.015	244.004	-147.505	387.816	383.356	-418.417	349.625	260.622	-425.592	293.136	301.399	-425.757	248.103	897.613	-155.093	249.005	888.903	-341.811	273.751	1079.979	6.338	227.753	1090.085	-493.310	255.296	1059.417	-70.356	216.198	1073.163	-413.435	391.861	869.942	-6.578	283.980	854.693	-494.105	330.074	851.894	21.232	216.886	848.395	-510.676	265.533	1335.592	-242.497	271.568	1331.429	-87.862	266.105	1084.817	-29.046	385.624	885.337	7.020	270.391	1339.898	-397.416	236.104	1091.701	-451.231	247.843	860.048	-502.396	285.222	907.961	-252.863	289.598	906.230	-145.280	264.845	467.228	-180.119	199.330	87.609	-243.699	286.414	910.160	-360.615	464.770	512.042	-337.420	264.469	121.975	-373.301	372.137	28.354	-379.899	368.654	30.751	-382.185	224.375	91.555	-369.392	321.990	25.376	-216.004	316.190	28.752	-214.286	179.398	62.182	-262.895	193.977	1396.085	-253.131	272.962	1376.482	-117.741	269.666	1382.153	-387.736	329.716	988.051	-102.959	331.480	972.433	-409.860	166.455	999.597	-199.002	170.045	992.256	-319.653	270.856	485.129	-143.381	440.555	522.051	-421.098	273.389	500.485	-256.533	455.977	525.874	-300.991	182.357	77.980	-189.722	241.738	141.027	-407.385	202.726	84.702	-270.765	270.600	135.143	-327.626	115.107	56.862	-245.455	176.819	133.789	-353.213	311.480	35.069	-217.252	350.718	50.344	-385.752	265.719	30.148	-174.091	307.353	67.158	-429.024	349.877	749.491	-100.121	315.458	646.210	-97.112	235.208	756.602	-68.598	400.629	800.876	-437.973	409.207	684.985	-450.159	286.181	757.325	-452.108	243.198	361.564	-152.361	246.127	238.231	-151.403	181.897	257.085	-151.096	391.698	396.437	-422.008	353.507	273.703	-429.183	297.018	314.479	-429.348	251.985	910.693	-158.684	252.887	901.983	-345.402	277.634	1093.060	2.747	231.635	1103.166	-496.901	259.178	1072.498	-73.947	220.080	1086.243	-417.026	395.743	883.023	-10.170	287.862	867.773	-497.696	333.956	864.975	17.641	220.768	861.476	-514.267
37	0.36000	243.504	462.033	-122.811	267.614	343.138	-154.781	165.056	87.057	-204.626	116.532	54.033	-261.467	274.129	35.035	-173.897	314.042	52.542	-214.860	460.944	503.469	-405.021	472.619	387.969	-371.927	280.115	163.614	-397.980	226.792	143.557	-344.405	365.218	70.586	-431.031	415.289	71.859	-384.586	248.287	236.855	-182.479	214.050	339.028	-101.561	176.863	238.005	-136.628	428.655	433.798	-431.284	370.780	328.705	-448.194	350.001	763.418	-103.150	351.490	651.331	-113.124	304.571	624.291	-70.174	246.943	754.007	-51.899	250.324	640.823	-63.865	381.846	786.118	-415.576	463.937	676.823	-415.180	289.637	726.548	-443.269	373.595	614.048	-433.773	358.213	931.171	-126.356	173.893	976.445	-192.874	361.435	930.678	-366.172	171.579	970.717	-310.222	197.919	1426.078	-233.149	256.759	1392.751	-86.335	252.291	1404.120	-395.747	326.270	1378.199	-221.181	326.874	1377.139	-264.804	289.879	1269.404	-20.725	239.210	1062.435	-60.594	266.354	1075.078	8.688	354.618	983.595	24.451	423.254	903.103	23.474	392.869	883.939	37.334	258.767	1255.264	-464.769	193.855	1067.199	-401.315	193.386	1078.885	-474.159	230.794	991.305	-511.206	256.875	862.768	-516.286	228.024	858.276	-528.024	267.911	860.389	-149.608	274.383	854.785	-338.791	286.224	869.524	-155.250	283.109	861.809	-313.324	272.914	1323.855	-238.226	279.157	1319.528	-83.448	278.278	1072.866	-24.359	403.268	877.510	10.615	277.559	1328.338	-393.300	240.130	1080.591	-446.714	243.822	849.856	-497.657	290.401	893.067	-248.508	294.280	891.325	-141.454	264.075	456.796	-176.214	194.442	75.752	-239.888	292.000	895.232	-355.692	477.326	503.365	-332.847	295.544	105.480	-366.232	411.141	18.476	-373.008	407.349	20.591	-374.962	253.016	73.410	-361.985	318.780	13.820	-212.454	312.511	17.495	-210.805	174.904	50.299	-259.020	200.331	1381.730	-248.437	279.723	1361.829	-113.083	275.998	1367.515	-383.549	334.542	973.421	-98.381	337.879	958.229	-405.046	170.879	985.306	-195.305	175.033	978.076	-316.071	269.724	469.849	-138.509	451.415	508.874	-416.481	272.356	485.774	-252.069	467.162	513.260	-296.015	176.748	64.185	-185.929	273.458	118.760	-403.206	198.291	70.956	-266.663	302.728	114.312	-323.465	109.891	43.190	-242.012	208.522	106.985	-348.444	306.519	21.179	-213.093	389.019	35.285	-382.069	260.217	16.142	-170.185	344.154	49.587	-425.217	352.310	733.213	-94.919	316.337	630.418	-92.068	237.427	742.001	-64.019	407.640	787.650	-434.191	417.564	671.728	-446.073	293.361	742.473	-448.008	240.388	346.913	-148.105	241.955	223.587	-147.386	178.248	243.202	-147.264	408.716	381.498	-417.343	377.846	257.057	-424.929	319.012	294.518	-424.504	256.572	895.790	-154.661	258.574	887.304	-341.419	288.058	1079.079	8.760	233.620	1089.244	-492.277	268.905	1057.740	-68.083	222.833	1072.352	-412.098	412.611	873.505	-5.667	284.883	852.994	-493.744	351.624	853.567	22.285	217.548	848.356	-509.682	276.796	1336.935	-241.817	283.039	1332.609	-87.039	282.160	1085.946	-27.950	407.150	890.591	7.024	281.441	1341.419	-396.891	244.012	1093.672	-450.305	247.704	862.937	-501.248	294.283	906.148	-252.099	298.162	904.406	-145.045	267.957	469.877	-179.805	198.325	88.832	-243.479	295.882	908.312	-359.283	481.208	516.445	-336.438	299.427	118.561	-369.823	415.023	31.557	-376.599	411.231	33.672	-378.553	256.898	86.491	-365.576	322.662	26.901	-216.045	316.393	30.576	-214.396	178.786	63.379	-262.611	204.213	1394.811	-252.028	283.605	1374.909	-116.674	279.880	1380.596	-387.140	338.424	986.502	-101.972	341.762	971.309	-408.638	174.761	998.387	-198.896	178.916	991.157	-319.662	273.606	482.929	-142.100	455.297	521.955	-420.072	276.238	498.854	-255.660	471.044	526.340	-299.607	180.630	77.266	-189.520	277.340	131.840	-406.797	202.173	84.037	-270.254	306.610	127.392	-327.056	113.773	56.271	-245.603	212.404	120.066	-352.035	310.401	34.260	-216.684	392.901	48.366	-385.660	264.099	29.223	-173.776	348.036	62.667	-428.808	356.192	746.294	-98.510	320.219	643.499	-95.659	241.309	755.082	-67.610	411.522	800.731	-437.782	421.446	684.809	-449.664	297.243	755.554	-451.599	244.270	359.994	-151.696	245.837	236.668	-150.977	182.130	256.283	-150.855	412.598	394.578	-420.934	381.728	270.137	-428.520	322.894	307.599	-428.095	260.454	908.870	-158.252	262.456	900.385	-345.010	291.940	1092.159	5.169	237.503	1102.325	-495.868	272.787	1070.821	-71.674	226.715	1085.433	-415.689	416.493	886.586	-9.258	288.765	866.075	-497.335	355.507	866.648	18.694	221.430	861.437	-513.273
